<svg id='clock-x_24' width='24' height='24' viewBox='0 0 24 24' xmlns='http://www.w3.org/2000/svg'
    xmlns:xlink='http://www.w3.org/1999/xlink'>
    <rect width='24' height='24' stroke='none' fill='#000000' opacity='0' />


    <g transform="matrix(1 0 0 1 12 12)">
        <g style="">
            <g transform="matrix(1 0 0 1 0 0)">
                <path
                    style="stroke: none; stroke-width: 2; stroke-dasharray: none; stroke-linecap: round; stroke-dashoffset: 0; stroke-linejoin: round; stroke-miterlimit: 4; fill: none; fill-rule: nonzero; opacity: 1;"
                    transform=" translate(-12, -12)" d="M 0 0 L 24 0 L 24 24 L 0 24 z"
                    stroke-linecap="round" />
            </g>
            <g transform="matrix(1 0 0 1 -0.25 -0.25)">
                <path
                    style="stroke: rgb(0,0,0); stroke-width: 1.5; stroke-dasharray: none; stroke-linecap: round; stroke-dashoffset: 0; stroke-linejoin: round; stroke-miterlimit: 4; fill: none; fill-rule: nonzero; opacity: 1;"
                    transform=" translate(-12, -12)"
                    d="M 20.926 13.15 C 21.41720949153322 9.335897057010145 19.430765305181318 5.631082866579266 15.98212940007452 3.929442946295188 C 12.53349349496772 2.2278030260111095 8.384692090678548 2.9053394448680105 5.656575111401835 5.615698419557213 C 2.9284581321251224 8.326057394246416 2.2238426700309617 12.470345721774692 3.9029252020642318 15.930020543909995 C 5.5820077340975 19.3896953660453 9.273770574006988 21.40029125407768 13.09099999999999 20.934"
                    stroke-linecap="round" />
            </g>
            <g transform="matrix(1 0 0 1 0.75 -1.75)">
                <path
                    style="stroke: rgb(0,0,0); stroke-width: 1.5; stroke-dasharray: none; stroke-linecap: round; stroke-dashoffset: 0; stroke-linejoin: round; stroke-miterlimit: 4; fill: none; fill-rule: nonzero; opacity: 1;"
                    transform=" translate(-13, -10.5)" d="M 12 7 L 12 12 L 14 14"
                    stroke-linecap="round" />
            </g>
            <g transform="matrix(1 0 0 1 7.25 7.25)">
                <path
                    style="stroke: rgb(0,0,0); stroke-width: 1.5; stroke-dasharray: none; stroke-linecap: round; stroke-dashoffset: 0; stroke-linejoin: round; stroke-miterlimit: 4; fill: none; fill-rule: nonzero; opacity: 1;"
                    transform=" translate(-19.5, -19.5)" d="M 22 22 L 17 17" stroke-linecap="round" />
            </g>
            <g transform="matrix(1 0 0 1 7.25 7.25)">
                <path
                    style="stroke: rgb(0,0,0); stroke-width: 1.5; stroke-dasharray: none; stroke-linecap: round; stroke-dashoffset: 0; stroke-linejoin: round; stroke-miterlimit: 4; fill: none; fill-rule: nonzero; opacity: 1;"
                    transform=" translate(-19.5, -19.5)" d="M 17 22 L 22 17" stroke-linecap="round" />
            </g>
        </g>
    </g>
</svg>